# xmcd
#
# Track frame offsets:
#	150
#	28802
#	60762
#	86477
#	124027
#	158272
#	173050
#	195975
#	226317
#	249672
#	263660
#
# Disc length: 3849
#
# Revision: 1
# Processed by: cddbd v1.5.1PL0 Copyright (c) Steve Scherf et al.
# Submitted via: CDex 1.51
# Normalized: r0:TRMNUM
#
DISCID=780f070b
DTITLE=Mike Stern - Give and Take
DYEAR=1997
DGENRE=Jazz
TTITLE0=I love you
TTITLE1=Hook up
TTITLE2=Everything changes
TTITLE3=One liners
TTITLE4=Jones street
TTITLE5=Lumpy
TTITLE6=Rooms
TTITLE7=That's what you think
TTITLE8=Giant step
TTITLE9=Who knows
TTITLE10=Oleo
EXTD=YEAR: 1997
EXTT0=
EXTT1=
EXTT2=
EXTT3=
EXTT4=
EXTT5=
EXTT6=
EXTT7=
EXTT8=
EXTT9=
EXTT10=
PLAYORDER=
